<svg xmlns="http://www.w3.org/2000/svg" aria-hidden="true" style="position:absolute;width:0;height:0;overflow:hidden">
  <defs>
  <symbol id="icon-Logomark" viewBox="0 0 28 32">
<path d="M14.375 1.053c-0.367-0.076-0.746-0.076-1.113 0-0.425 0.087-0.804 0.3-1.106 0.469l-0.082 0.046-10.225 5.681c-0.028 0.016-0.057 0.032-0.087 0.048-0.319 0.176-0.721 0.397-1.029 0.732-0.267 0.289-0.468 0.632-0.592 1.006-0.143 0.432-0.141 0.891-0.14 1.255 0 0.034 0 0.067 0 0.1v11.216c0 0.032-0 0.066-0 0.1-0.001 0.365-0.003 0.823 0.14 1.255 0.123 0.374 0.325 0.716 0.592 1.006 0.308 0.335 0.71 0.556 1.029 0.732 0.030 0.016 0.059 0.032 0.087 0.048l10.307 5.727c0.302 0.169 0.681 0.382 1.106 0.469 0.367 0.076 0.746 0.076 1.113 0 0.425-0.087 0.804-0.3 1.106-0.469l0.082-0.046 10.225-5.681c0.012-0.007 0.025-0.014 0.038-0.021 0.016-0.009 0.033-0.018 0.049-0.027 0.319-0.176 0.721-0.397 1.029-0.732 0.267-0.289 0.468-0.632 0.592-1.006 0.143-0.432 0.141-0.891 0.14-1.255-0-0.034-0-0.067-0-0.1v-11.216c0-0.032 0-0.066 0-0.1 0.001-0.365 0.003-0.823-0.14-1.255-0.123-0.374-0.325-0.716-0.592-1.006-0.308-0.335-0.71-0.556-1.029-0.732l-0.001-0.001c-0.029-0.016-0.058-0.032-0.086-0.048l-10.307-5.727c-0.302-0.169-0.681-0.382-1.106-0.469zM13.416 3.984c0.209-0.116 0.316-0.175 0.396-0.214l0.007-0.003 0.007 0.003c0.080 0.038 0.187 0.097 0.396 0.214l9.188 5.104-9.591 5.328-9.591-5.328 9.188-5.104zM2.764 11.436l9.672 5.374 0 10.656-9.246-5.137c-0.221-0.123-0.334-0.186-0.413-0.237l-0.007-0.004-0.001-0.008c-0.006-0.094-0.006-0.223-0.006-0.476v-10.168z"></path>
</symbol>
<symbol id="icon-Logotype" viewBox="0 0 125 32">
<path d="M5.644 19.568h6.451v3.802h-11.376v-20.218h4.925v16.416z"></path>
<path d="M16.633 5.629c-0.864 0-1.574-0.25-2.131-0.749-0.538-0.518-0.806-1.152-0.806-1.901 0-0.768 0.269-1.402 0.806-1.901 0.557-0.518 1.267-0.778 2.131-0.778 0.845 0 1.536 0.259 2.074 0.778 0.557 0.499 0.835 1.133 0.835 1.901 0 0.749-0.278 1.382-0.835 1.901-0.538 0.499-1.229 0.749-2.074 0.749zM19.081 7.299v16.070h-4.925v-16.070h4.925z"></path>
<path d="M28.467 7.069c1.133 0 2.122 0.23 2.966 0.691 0.864 0.461 1.526 1.066 1.987 1.814v-2.275h4.925v16.042c0 1.478-0.298 2.813-0.893 4.003-0.576 1.21-1.469 2.17-2.678 2.88-1.19 0.71-2.678 1.066-4.464 1.066-2.381 0-4.31-0.566-5.789-1.699-1.478-1.114-2.323-2.63-2.534-4.55h4.867c0.154 0.614 0.518 1.094 1.094 1.44 0.576 0.365 1.286 0.547 2.131 0.547 1.018 0 1.824-0.298 2.419-0.893 0.614-0.576 0.922-1.507 0.922-2.794v-2.275c-0.48 0.749-1.142 1.363-1.987 1.843-0.845 0.461-1.834 0.691-2.966 0.691-1.325 0-2.525-0.336-3.6-1.008-1.075-0.691-1.93-1.661-2.563-2.909-0.614-1.267-0.922-2.726-0.922-4.378s0.307-3.101 0.922-4.349c0.634-1.248 1.488-2.208 2.563-2.88s2.275-1.008 3.6-1.008zM33.421 15.335c0-1.229-0.346-2.198-1.037-2.909-0.672-0.71-1.498-1.066-2.477-1.066s-1.814 0.355-2.506 1.066c-0.672 0.691-1.008 1.651-1.008 2.88s0.336 2.208 1.008 2.938c0.691 0.71 1.526 1.066 2.506 1.066s1.805-0.355 2.477-1.066c0.691-0.71 1.037-1.68 1.037-2.909z"></path>
<path d="M51.499 7.127c1.843 0 3.322 0.614 4.435 1.843 1.114 1.21 1.67 2.88 1.67 5.011v9.389h-4.896v-8.726c0-1.075-0.278-1.91-0.835-2.506s-1.306-0.893-2.246-0.893c-0.941 0-1.69 0.298-2.246 0.893s-0.835 1.43-0.835 2.506v8.726h-4.925v-21.312h4.925v7.402c0.499-0.71 1.181-1.277 2.045-1.699s1.834-0.634 2.909-0.634z"></path>
<path d="M69.695 19.194v4.176h-2.506c-1.786 0-3.178-0.432-4.176-1.296-0.998-0.883-1.498-2.314-1.498-4.291v-6.394h-1.958v-4.090h1.958v-3.917h4.925v3.917h3.226v4.090h-3.226v6.451c0 0.48 0.115 0.826 0.346 1.037s0.614 0.317 1.152 0.317h1.757z"></path>
<path d="M77.075 9.575c0.461-0.749 1.123-1.354 1.987-1.814s1.853-0.691 2.966-0.691c1.325 0 2.525 0.336 3.6 1.008s1.92 1.632 2.534 2.88c0.634 1.248 0.95 2.698 0.95 4.349s-0.317 3.11-0.95 4.378c-0.614 1.248-1.459 2.218-2.534 2.909-1.075 0.672-2.275 1.008-3.6 1.008-1.133 0-2.122-0.221-2.966-0.662-0.845-0.461-1.507-1.066-1.987-1.814v2.246h-4.925v-21.312h4.925v7.517zM84.103 15.306c0-1.229-0.346-2.189-1.037-2.88-0.672-0.71-1.507-1.066-2.506-1.066-0.979 0-1.814 0.355-2.506 1.066-0.672 0.71-1.008 1.68-1.008 2.909s0.336 2.198 1.008 2.909c0.691 0.71 1.526 1.066 2.506 1.066s1.814-0.355 2.506-1.066c0.691-0.73 1.037-1.709 1.037-2.938z"></path>
<path d="M98.725 23.6c-1.574 0-2.995-0.336-4.262-1.008-1.248-0.672-2.237-1.632-2.966-2.88-0.71-1.248-1.066-2.707-1.066-4.378 0-1.651 0.365-3.101 1.094-4.349 0.73-1.267 1.728-2.237 2.995-2.909s2.688-1.008 4.262-1.008c1.574 0 2.995 0.336 4.262 1.008s2.266 1.642 2.995 2.909c0.729 1.248 1.094 2.698 1.094 4.349s-0.374 3.11-1.123 4.378c-0.73 1.248-1.738 2.208-3.024 2.88-1.267 0.672-2.688 1.008-4.262 1.008zM98.725 19.338c0.941 0 1.738-0.346 2.39-1.037 0.672-0.691 1.008-1.68 1.008-2.966s-0.326-2.275-0.979-2.966c-0.634-0.691-1.421-1.037-2.362-1.037-0.96 0-1.757 0.346-2.39 1.037-0.634 0.672-0.95 1.661-0.95 2.966 0 1.286 0.307 2.275 0.922 2.966 0.634 0.691 1.421 1.037 2.362 1.037z"></path>
<path d="M118.963 23.37l-3.082-4.464-2.592 4.464h-5.328l5.299-8.208-5.443-7.862h5.53l3.082 4.435 2.592-4.435h5.328l-5.386 8.093 5.53 7.978h-5.53z"></path>
</symbol>
    <symbol id="icon-play" viewBox="0 0 28 32">
<path d="M0.473 31.855v-31.492l27.273 15.746-27.273 15.746z"></path>
</symbol>
<symbol id="icon-untitled" viewBox="0 0 45 32">
<path d="M0.404 29.983c1.885-1.972 3.366-3.81 4.444-5.513s1.616-3.093 1.616-4.168c0-0.627-0.224-1.21-0.673-1.748-0.359-0.538-0.943-1.12-1.751-1.748-1.257-0.986-2.244-2.017-2.962-3.092s-1.077-2.51-1.077-4.303c0-2.779 0.853-5.020 2.558-6.723 1.706-1.793 3.86-2.689 6.464-2.689 2.783 0 5.027 0.896 6.733 2.689 1.795 1.703 2.693 3.944 2.693 6.723 0 3.496-1.481 7.35-4.444 11.563-2.873 4.123-6.733 7.798-11.58 11.025l-2.020-2.017zM26.527 29.983c1.885-1.972 3.366-3.81 4.444-5.513s1.616-3.093 1.616-4.168c0-0.627-0.225-1.21-0.673-1.748-0.359-0.538-0.943-1.12-1.751-1.748-1.257-0.986-2.244-2.017-2.962-3.092s-1.077-2.51-1.077-4.303c0-2.779 0.853-5.020 2.558-6.723 1.706-1.793 3.86-2.689 6.464-2.689 2.783 0 5.027 0.896 6.733 2.689 1.795 1.703 2.693 3.944 2.693 6.723 0 3.496-1.481 7.35-4.444 11.563-2.873 4.123-6.733 7.798-11.581 11.025l-2.020-2.017z"></path>
</symbol>
<symbol id="icon-arrow-left" viewBox="0 0 60 32">
<path d="M15.222 1.724c0.25 0.104 0.478 0.256 0.669 0.448s0.344 0.419 0.448 0.669 0.157 0.519 0.157 0.79c0 0.271-0.053 0.54-0.157 0.79s-0.256 0.478-0.448 0.669l-8.851 8.847h50.624c0.547 0 1.071 0.217 1.458 0.604s0.604 0.911 0.604 1.458-0.217 1.071-0.604 1.458c-0.386 0.387-0.911 0.604-1.458 0.604h-50.624l8.851 8.847c0.387 0.387 0.605 0.912 0.605 1.459s-0.217 1.072-0.605 1.459c-0.387 0.387-0.912 0.605-1.459 0.605s-1.072-0.218-1.459-0.605l-12.368-12.368c-0.192-0.192-0.344-0.419-0.448-0.669s-0.157-0.519-0.157-0.79c0-0.271 0.053-0.54 0.157-0.79s0.256-0.478 0.448-0.669l12.368-12.368c0.191-0.192 0.419-0.344 0.669-0.448s0.519-0.157 0.79-0.157c0.271 0 0.54 0.054 0.79 0.157z"></path>
</symbol>
<symbol id="icon-arrow-right" viewBox="0 0 67 32">
<path d="M49.337 0.174c-0.278 0.115-0.53 0.284-0.742 0.497s-0.382 0.464-0.497 0.742-0.175 0.575-0.175 0.876c0 0.301 0.059 0.598 0.175 0.876s0.284 0.53 0.497 0.742l9.812 9.808h-56.121c-0.606 0-1.187 0.241-1.616 0.669s-0.669 1.010-0.669 1.616c0 0.606 0.241 1.187 0.669 1.616s1.010 0.669 1.616 0.669h56.122l-9.812 9.808c-0.429 0.429-0.67 1.011-0.67 1.618s0.241 1.189 0.67 1.618c0.429 0.429 1.011 0.67 1.618 0.67s1.189-0.241 1.618-0.67l13.711-13.711c0.213-0.212 0.382-0.465 0.497-0.742s0.174-0.575 0.174-0.876c0-0.301-0.059-0.598-0.174-0.876s-0.284-0.53-0.497-0.742l-13.711-13.711c-0.212-0.213-0.465-0.382-0.742-0.497s-0.575-0.174-0.876-0.174c-0.301 0-0.598 0.059-0.876 0.174z"></path>
</symbol>
<symbol id="icon-sox" viewBox="0 0 32 32">
<path d="M31.987 25.743v-2.816h-3.003v-1.877h-1.001v-1.564h1.001v-2.816h-7.486v0.939h6.548v0.939h-19.42v0.939h18.419v1.564h-20.43c-0.431 0-0.782-0.351-0.782-0.782s0.351-0.782 0.782-0.782h1.073v-0.939h-1.073c-0.949 0-1.721 0.772-1.721 1.721s0.772 1.721 1.721 1.721h21.431v0.939h-16.175v0.939h19.178v0.939h-26.499c-1.466 0-2.659 1.193-2.659 2.659s1.193 2.659 2.659 2.659h22.106v-0.939h-22.106c-0.949 0-1.721-0.772-1.721-1.721s0.772-1.721 1.721-1.721h25.498v1.564h-20.805v0.939h20.805v0.939h-2.454v0.939h3.455v0.939h-26.5c-1.984 0-3.598-1.614-3.598-3.598s1.614-3.598 3.598-3.598h6.382v-0.939h-4.317c-1.466 0-2.659-1.193-2.659-2.659s1.193-2.659 2.659-2.659h13.945v-0.939h-13.945c-1.984 0-3.598 1.614-3.598 3.598 0 1.060 0.461 2.014 1.193 2.673-2.343 0.175-4.197 2.135-4.197 4.522 0 2.501 2.035 4.537 4.537 4.537h27.438v-2.816h-1.001v-3.441h1.001z"></path>
<path d="M7.365 27.307h0.939v0.939h-0.939v-0.939z"></path>
<path d="M8.648 13.949l0.209 0.139c0.081 0.054 2.054 1.33 7.143 1.33s7.062-1.276 7.143-1.33l0.209-0.139v-7.901l2.816-0.939v4.431c-0.721 0.205-1.251 0.869-1.251 1.655v2.346h3.441v-2.346c0-0.786-0.53-1.45-1.251-1.655v-4.744l1.64-0.547-4.929-1.643-0.297 0.89 2.257 0.752-9.779 3.26-9.779-3.26 9.779-3.26 6.631 2.21 0.297-0.89-6.928-2.309-12.747 4.249 5.395 1.798v7.901zM27.419 11.195v1.408h-1.564v-1.408c0-0.431 0.351-0.782 0.782-0.782s0.782 0.351 0.782 0.782zM9.586 6.36l6.414 2.138 6.414-2.138v3.677h-1.158v0.939h1.158v0.939h-2.034v0.939h2.034v0.566c-0.605 0.295-2.551 1.061-6.414 1.061-3.866 0-5.812-0.768-6.414-1.061v-7.059z"></path>
<path d="M5.488 27.307h0.939v0.939h-0.939v-0.939z"></path>
<path d="M18.503 11.914h0.939v0.939h-0.939v-0.939z"></path>
</symbol>
<symbol id="icon-audit" viewBox="0 0 32 32">
<path fill="#fff" style="fill: var(--color1, #fff)" d="M0 0h32v32h-32v-32z"></path>
<path fill="#ff7b52" style="fill: var(--color2, #ff7b52)" d="M31.467 0c-0 0-0 0-0 0h-30.933c-0.294-0-0.533 0.239-0.533 0.533 0 0 0 0 0 0v10.667h1.067v-10.133h29.867v11.733h-18.667v1.067h19.2c0.294 0 0.533-0.239 0.533-0.533 0-0 0-0 0-0v-12.8c0-0.294-0.239-0.533-0.533-0.533z"></path>
<path fill="#ff7b52" style="fill: var(--color2, #ff7b52)" d="M28.267 2.667h-10.667v1.067h10.667v-1.067z"></path>
<path fill="#ff7b52" style="fill: var(--color2, #ff7b52)" d="M29.867 5.867h-10.667v1.067h10.667v-1.067z"></path>
<path fill="#ff7b52" style="fill: var(--color2, #ff7b52)" d="M27.733 9.067h-10.667v1.067h10.667v-1.067z"></path>
<path fill="#ff7b52" style="fill: var(--color2, #ff7b52)" d="M17.024 4.598c-0.365-0.878-1.373-1.293-2.25-0.928-0.015 0.006-0.030 0.013-0.045 0.019l-4.325 2.243c0.171-0.353 0.26-0.741 0.262-1.133 0-1.473-1.194-2.667-2.667-2.667s-2.667 1.194-2.667 2.667c0.002 0.579 0.194 1.141 0.547 1.6h-0.022c-1.514 0.010-2.865 0.951-3.4 2.368l-1.424 4.907c-0.339 0.88 0.1 1.869 0.98 2.208 0.401 0.155 0.846 0.152 1.246-0.007 0.459-0.185 0.817-0.559 0.981-1.026l0.558-1.775v7.719c-0.459-0.353-1.021-0.545-1.6-0.547-1.471-0.002-2.664 1.188-2.667 2.659-0.001 0.72 0.29 1.41 0.806 1.912-0.819 0.419-1.336 1.26-1.339 2.179v4.469c-0 0.294 0.239 0.533 0.533 0.533 0 0 0 0 0 0h5.333c0.294 0 0.533-0.239 0.533-0.533 0-0 0-0 0-0v-4.469c-0.003-0.756-0.354-1.468-0.952-1.931h4.037c-0.598 0.462-0.949 1.175-0.952 1.931v4.469c-0 0.294 0.239 0.533 0.533 0.533 0 0 0 0 0 0h5.333c0.294 0 0.533-0.239 0.533-0.533 0-0 0-0 0-0v-4.469c-0.003-0.92-0.52-1.761-1.339-2.179 1.053-1.028 1.073-2.715 0.046-3.768-0.633-0.648-1.552-0.931-2.44-0.749v-10.91l4.896-2.542c0.878-0.365 1.293-1.373 0.928-2.25zM8 3.2c0.884 0 1.6 0.716 1.6 1.6s-0.716 1.6-1.6 1.6c-0.883-0.001-1.599-0.717-1.6-1.6s0.716-1.6 1.6-1.6zM3.2 21.313c0.884 0 1.6 0.716 1.6 1.6s-0.716 1.6-1.6 1.6-1.6-0.716-1.6-1.6c0.001-0.883 0.717-1.599 1.6-1.6zM5.333 30.933h-4.267v-3.936c0.001-0.771 0.626-1.396 1.398-1.397h1.471c0.771 0.001 1.397 0.626 1.398 1.397v3.936zM13.867 26.997v3.936h-4.267v-3.936c0.001-0.771 0.626-1.396 1.398-1.397h1.471c0.771 0.001 1.397 0.626 1.398 1.397zM11.733 21.313c0.883 0.001 1.599 0.717 1.6 1.6s-0.716 1.6-1.6 1.6c-0.884 0-1.6-0.716-1.6-1.6s0.716-1.6 1.6-1.6zM16.048 5.488c-0.071 0.183-0.218 0.327-0.403 0.395l-5.225 2.71c-0.177 0.092-0.288 0.274-0.288 0.473v11.727c-0.999 0.739-1.345 2.076-0.83 3.206h-0.77v-9.067h-1.067v9.067h-1.837c0.152-0.335 0.232-0.699 0.235-1.067h0.002v-13.333c-0-0.295-0.239-0.533-0.533-0.533-0.233 0-0.439 0.151-0.509 0.373l-1.593 5.068c-0.121 0.333-0.488 0.505-0.821 0.384-0.023-0.008-0.046-0.018-0.068-0.029-0.308-0.159-0.438-0.53-0.298-0.847l1.424-4.907c0.384-0.986 1.332-1.637 2.39-1.642h3.776c0.085 0 0.17-0.020 0.246-0.060l5.301-2.752c0.318-0.133 0.685 0.003 0.839 0.311 0.082 0.162 0.092 0.352 0.028 0.522z"></path>
<path fill="#ff7b52" style="fill: var(--color2, #ff7b52)" d="M22.128 24.818c1.055-1.028 1.077-2.716 0.049-3.771s-2.716-1.077-3.771-0.049c-1.055 1.028-1.077 2.716-0.049 3.771 0.016 0.017 0.033 0.033 0.049 0.049-0.819 0.419-1.336 1.26-1.339 2.179v4.469c-0 0.294 0.239 0.533 0.533 0.533 0 0 0 0 0 0h5.333c0.294 0 0.533-0.239 0.533-0.533 0-0 0-0 0-0v-4.469c-0.003-0.92-0.52-1.761-1.339-2.179zM20.267 21.314c0.884 0 1.6 0.716 1.6 1.6s-0.716 1.6-1.6 1.6c-0.884 0-1.6-0.716-1.6-1.6s0.717-1.599 1.6-1.6zM22.4 30.933h-4.267v-3.936c0.001-0.771 0.626-1.396 1.398-1.397h1.471c0.771 0.001 1.397 0.626 1.398 1.397v3.936z"></path>
<path fill="#ff7b52" style="fill: var(--color2, #ff7b52)" d="M30.661 24.818c1.055-1.028 1.077-2.716 0.049-3.771s-2.716-1.077-3.771-0.049c-1.055 1.028-1.077 2.716-0.049 3.771 0.016 0.017 0.033 0.033 0.049 0.049-0.819 0.419-1.336 1.26-1.339 2.179v4.469c-0 0.294 0.239 0.533 0.533 0.533 0 0 0 0 0 0h5.333c0.294 0 0.533-0.239 0.533-0.533 0-0 0-0 0-0v-4.469c-0.003-0.92-0.52-1.761-1.339-2.179zM28.8 21.314c0.884 0 1.6 0.716 1.6 1.6s-0.716 1.6-1.6 1.6c-0.884 0-1.6-0.716-1.6-1.6s0.717-1.599 1.6-1.6zM30.933 30.933h-4.267v-3.936c0.001-0.771 0.626-1.396 1.398-1.397h1.471c0.771 0.001 1.397 0.626 1.398 1.397v3.936z"></path>
</symbol>
<!-- Reviews -->
<symbol id="icon-untitled" viewBox="0 0 45 32">
<path d="M0.404 29.983c1.885-1.972 3.366-3.81 4.444-5.513s1.616-3.093 1.616-4.168c0-0.627-0.224-1.21-0.673-1.748-0.359-0.538-0.943-1.12-1.751-1.748-1.257-0.986-2.244-2.017-2.962-3.092s-1.077-2.51-1.077-4.303c0-2.779 0.853-5.020 2.558-6.723 1.706-1.793 3.86-2.689 6.464-2.689 2.783 0 5.027 0.896 6.733 2.689 1.795 1.703 2.693 3.944 2.693 6.723 0 3.496-1.481 7.35-4.444 11.563-2.873 4.123-6.733 7.798-11.58 11.025l-2.020-2.017zM26.527 29.983c1.885-1.972 3.366-3.81 4.444-5.513s1.616-3.093 1.616-4.168c0-0.627-0.225-1.21-0.673-1.748-0.359-0.538-0.943-1.12-1.751-1.748-1.257-0.986-2.244-2.017-2.962-3.092s-1.077-2.51-1.077-4.303c0-2.779 0.853-5.020 2.558-6.723 1.706-1.793 3.86-2.689 6.464-2.689 2.783 0 5.027 0.896 6.733 2.689 1.795 1.703 2.693 3.944 2.693 6.723 0 3.496-1.481 7.35-4.444 11.563-2.873 4.123-6.733 7.798-11.581 11.025l-2.020-2.017z"></path>
</symbol>
<!-- footer -->
<symbol id="icon-guarantee" viewBox="0 0 32 32">
<path d="M12.332 0.429c-3.785 0.898-8.156 4.137-10.146 7.571-5.268 8.937-0.39 20.683 9.678 23.415 12.644 3.434 23.61-8.976 18.966-21.385-0.976-2.576-4.176-6.322-6.751-7.805-3.395-1.99-7.922-2.693-11.746-1.795zM21.307 4.683c2.419 1.21 4.8 3.551 6.010 6.049 0.78 1.6 0.976 2.537 0.976 5.307 0 2.966-0.117 3.59-1.171 5.62-4.761 9.288-17.99 8.976-22.478-0.546-3.083-6.556 0.39-14.4 7.454-16.976 2.498-0.898 6.712-0.624 9.21 0.546z"></path>
<path d="M17.483 13.151l-4.605 4.566-3.122-3.044-1.483 1.444-1.444 1.444 3.044 3.005 3.005 3.044 12.254-12.254-1.327-1.405c-0.741-0.741-1.405-1.366-1.561-1.366-0.117 0-2.263 2.068-4.761 4.566z"></path>
</symbol>
<symbol id="icon-safe" viewBox="0 0 32 32">
<path d="M0 16c0-8.837 7.163-16 16-16s16 7.163 16 16c0 8.837-7.163 16-16 16s-16-7.163-16-16zM28.522 16c0-6.915-5.605-12.523-12.522-12.523s-12.521 5.609-12.521 12.523c0 6.915 5.605 12.522 12.521 12.522s12.522-5.607 12.522-12.522zM20.629 11.413v2.496c0.992 0 1.984 0.998 1.984 2.163v5.824c0 0.998-0.992 1.997-2.149 1.997h-9.093c-0.992 0-1.984-0.998-1.984-2.163v-5.824c0-0.998 0.992-1.997 1.984-1.997v-2.496c0-2.33 2.315-4.16 4.629-4.16s4.629 1.83 4.629 4.16zM13.52 13.909h4.96v-2.496c0-1.331-1.157-2.163-2.48-2.163s-2.48 0.832-2.48 2.163v2.496z"></path>
</symbol>
<symbol id="icon-support" viewBox="0 0 32 32">
<path d="M12.332 0.429c-3.785 0.898-8.156 4.137-10.146 7.571-5.268 8.937-0.39 20.683 9.678 23.415 12.644 3.434 23.61-8.976 18.966-21.385-0.976-2.576-4.176-6.322-6.751-7.805-3.395-1.99-7.922-2.693-11.746-1.795zM12.878 7.688c0.312 0.702 0.156 0.976-0.976 1.639-0.741 0.429-1.834 1.444-2.419 2.302l-1.132 1.522-1.639-0.624c-0.898-0.351-1.795-0.819-2.029-1.054-0.585-0.585 1.99-4.176 3.981-5.541 2.849-1.912 2.771-1.951 4.215 1.756zM23.298 5.932c1.522 1.015 3.59 3.551 4.137 5.034 0.156 0.507-0.234 0.819-1.795 1.405l-1.99 0.78-0.82-1.21c-0.429-0.624-1.522-1.717-2.419-2.419l-1.6-1.249 0.937-1.99c0.624-1.405 1.093-1.951 1.405-1.756 0.273 0.156 1.249 0.78 2.146 1.405zM18.341 11.902c2.732 1.405 3.122 5.698 0.741 7.688-2.185 1.834-5.581 1.366-6.985-0.937-2.615-4.293 1.795-9.054 6.244-6.751zM11.707 22.712l1.483 0.937-0.819 1.951c-0.429 1.054-0.859 1.99-0.898 2.068-0.234 0.273-3.512-1.873-4.488-2.966-0.585-0.585-1.405-1.795-1.873-2.654l-0.819-1.522 4.059-1.717 0.937 1.483c0.546 0.78 1.639 1.873 2.419 2.419zM26.537 20.098c1.171 0.585 1.171 0.624 0.585 1.756-0.937 1.834-2.888 3.863-4.761 4.956-0.937 0.546-1.756 0.937-1.834 0.859-0.039-0.078-0.468-1.054-0.898-2.107l-0.78-1.951 1.444-0.937c0.82-0.507 1.873-1.561 2.381-2.381 1.015-1.6 1.171-1.6 3.863-0.195z"></path>
</symbol>
<!-- footer social -->
<symbol id="icon-twitter" viewBox="0 0 40 32">
<path d="M39.389 3.801c-1.448 0.625-3.025 1.075-4.648 1.25 1.686-1.002 2.948-2.584 3.55-4.45-1.582 0.941-3.315 1.601-5.122 1.95-0.755-0.807-1.669-1.451-2.684-1.89s-2.109-0.664-3.215-0.662c-4.473 0-8.071 3.626-8.071 8.076 0 0.625 0.076 1.25 0.199 1.851-6.698-0.35-12.672-3.55-16.644-8.45-0.724 1.236-1.103 2.643-1.098 4.076 0 2.802 1.425 5.273 3.598 6.727-1.28-0.050-2.531-0.402-3.65-1.027v0.099c0 3.924 2.774 7.176 6.471 7.924-0.694 0.18-1.408 0.273-2.125 0.275-0.525 0-1.022-0.052-1.524-0.123 1.022 3.2 4 5.524 7.546 5.6-2.774 2.173-6.248 3.451-10.021 3.451-0.677 0-1.302-0.024-1.95-0.099 3.579 2.296 7.825 3.621 12.398 3.621 14.845 0 22.968-12.298 22.968-22.973 0-0.35 0-0.701-0.024-1.051 1.572-1.15 2.949-2.575 4.047-4.175z"></path>
</symbol>
<symbol id="icon-fb" viewBox="0 0 34 32">
<path d="M16.988 0c-8.835 0-15.998 7.163-15.998 15.998 0 7.984 5.85 14.602 13.499 15.806v-11.181h-4.064v-4.626h4.064v-3.525c0-4.013 2.389-6.226 6.042-6.226 1.75 0 3.584 0.312 3.584 0.312v3.934h-2.022c-1.984 0-2.605 1.235-2.605 2.501v3h4.434l-0.709 4.626h-3.725v11.181c7.65-1.198 13.499-7.818 13.499-15.803 0-8.835-7.163-15.998-15.998-15.998z"></path>
</symbol>
<symbol id="icon-rss" viewBox="0 0 34 32">
<path d="M4.223 0c15.923 0 28.882 12.921 28.95 28.828v0.001h0.002v1.683h-0.019c-0.042 0.373-0.209 0.721-0.474 0.988s-0.612 0.436-0.985 0.48v0.020h-2.992v-0.003c-0.405-0.008-0.793-0.164-1.092-0.437s-0.488-0.645-0.533-1.048h-0.019v-1.683h0.017c-0.068-12.548-10.293-22.735-22.856-22.735-0.012 0-0.024-0.001-0.036-0.002-0.010-0.001-0.020-0.001-0.030-0.002v0.023h-1.683v-0.019c-0.373-0.042-0.721-0.209-0.988-0.474s-0.436-0.612-0.48-0.985h-0.020v-2.992h0.003c0.008-0.405 0.164-0.793 0.437-1.092s0.646-0.488 1.048-0.533v-0.019h1.683v0.003c0.010-0 0.020-0.001 0.029-0.002 0.012-0.001 0.024-0.002 0.036-0.002zM4.223 11.53c-0.012 0-0.024 0.001-0.036 0.002h-0c-0.010 0.001-0.020 0.001-0.029 0.002v-0.003h-1.683v0.019c-0.402 0.045-0.775 0.234-1.048 0.533s-0.428 0.687-0.437 1.092h-0.003v2.992h0.020c0.044 0.373 0.214 0.72 0.48 0.985s0.614 0.432 0.988 0.474v0.019h1.683v-0.023c0.010 0 0.020 0.001 0.030 0.002 0.012 0.001 0.024 0.002 0.036 0.002 6.206 0 11.259 5.015 11.326 11.205h-0.016v1.683h0.019c0.045 0.402 0.234 0.775 0.533 1.048s0.687 0.428 1.092 0.437v0.003h2.992v-0.020c0.373-0.044 0.72-0.214 0.985-0.48s0.432-0.614 0.474-0.988h0.019v-1.683h-0.003c-0.067-9.551-7.855-17.299-17.42-17.299zM5.545 23.263c-0.56 0-1.115 0.11-1.633 0.325s-0.988 0.529-1.384 0.925c-0.396 0.396-0.71 0.867-0.925 1.384s-0.324 1.073-0.324 1.633c0 0.56 0.11 1.115 0.325 1.633s0.529 0.988 0.925 1.384c0.396 0.396 0.867 0.71 1.384 0.925s1.073 0.325 1.633 0.325 1.115-0.11 1.633-0.325c0.518-0.214 0.988-0.529 1.384-0.925s0.71-0.867 0.925-1.384c0.214-0.518 0.325-1.073 0.325-1.633s-0.11-1.116-0.324-1.633-0.529-0.989-0.925-1.385c-0.396-0.396-0.867-0.711-1.385-0.925s-1.073-0.325-1.634-0.324z"></path>
</symbol>
<symbol id="icon-insta" viewBox="0 0 34 32">
<path d="M17.171 10.664c-2.938 0-5.336 2.398-5.336 5.336s2.398 5.336 5.336 5.336c2.938 0 5.336-2.398 5.336-5.336s-2.398-5.336-5.336-5.336zM33.174 16c0-2.21 0.020-4.399-0.104-6.604-0.124-2.562-0.708-4.835-2.582-6.709-1.877-1.877-4.147-2.458-6.708-2.582-2.21-0.124-4.399-0.104-6.604-0.104-2.21 0-4.399-0.020-6.604 0.104-2.562 0.124-4.835 0.708-6.709 2.582-1.877 1.877-2.458 4.147-2.582 6.709-0.124 2.21-0.104 4.399-0.104 6.604s-0.020 4.399 0.104 6.604c0.124 2.562 0.708 4.835 2.582 6.708 1.877 1.877 4.147 2.458 6.709 2.582 2.21 0.124 4.399 0.104 6.604 0.104 2.209 0 4.399 0.020 6.604-0.104 2.562-0.124 4.835-0.708 6.708-2.582 1.877-1.877 2.458-4.147 2.582-6.708 0.128-2.205 0.104-4.395 0.104-6.604zM17.171 24.21c-4.543 0-8.21-3.667-8.21-8.21s3.666-8.21 8.21-8.21c4.543 0 8.209 3.666 8.209 8.21s-3.666 8.21-8.209 8.21zM25.717 9.372c-1.061 0-1.917-0.857-1.917-1.917s0.856-1.917 1.917-1.917c1.061 0 1.917 0.857 1.917 1.917 0 0.252-0.049 0.501-0.145 0.734s-0.237 0.444-0.416 0.622c-0.178 0.178-0.39 0.319-0.622 0.416s-0.482 0.146-0.734 0.145z"></path>
</symbol>
<!-- curve bg -->
<symbol id="icon-marin" viewBox="0 0 528 32">
<path d="M0 26.667l44-1.413c44-1.44 132-4.267 220-4.453s176 2.32 220 3.547l44 1.253v6.667h-44c-44 0-132 0-220 0s-176 0-220 0h-44z"></path>
</symbol>
<symbol id="icon-ultramarin" viewBox="0 0 528 32">
<path d="M0 31.2l44-3.653c44-3.627 132-10.933 220-11.333s176 6.107 220 9.333l44 3.253v3.467h-44c-44 0-132 0-220 0s-176 0-220 0h-44z"></path>
</symbol>
  </defs>
</svg>